<svg width="153" height="31" viewBox="0 0 153 31" fill="none" xmlns="http://www.w3.org/2000/svg">
<path d="M37.859 1.18663C37.9959 0.961964 38.018 0.661247 37.9158 0.409976C37.8137 0.158706 37.6051 0 37.3767 0H30.6261C30.4364 0 30.2577 0.109902 30.1439 0.29668L25.3823 8.10853H33.7604L37.859 1.18663Z" fill="#FFD652"/>
<path d="M0.780703 1.18663C0.643742 0.961964 0.621673 0.661247 0.723816 0.409976C0.825959 0.158706 1.03457 0 1.26294 0H8.01357C8.20325 0 8.38196 0.109902 8.49573 0.29668L13.2573 8.10853H4.87934L0.780703 1.18663Z" fill="#F7EDBC"/>
<path d="M33.7603 8.1084H4.86914V30.2584C4.86914 30.668 5.13904 31 5.47186 31H33.1576C33.4905 31 33.7603 30.6679 33.7603 30.2584V8.1084Z" fill="#FFD652"/>
<path d="M33.7604 8.1084H25.4426V30.2584C25.4426 30.668 25.7125 31 26.0453 31H33.1577C33.4906 31 33.7604 30.6679 33.7604 30.2584V8.1084Z" fill="#F7EDBC"/>
<path d="M18.5676 12.4532V8.10229H12.1384V12.4532C12.1384 12.8628 12.4083 13.1948 12.7411 13.1948H17.9648C18.2979 13.1948 18.5676 12.8627 18.5676 12.4532Z" fill="#FB9D46"/>
<path d="M20.5746 16.3673H20.6041C20.6892 16.3673 20.7645 16.4109 20.8147 16.4774C22.0596 17.8983 22.7132 20.9832 22.5681 23.0478C22.5277 23.6203 22.4263 24.1237 22.2593 24.5037C22.0695 24.937 21.7956 25.2214 21.429 25.2965C20.962 25.3921 20.3782 25.1185 19.6766 24.3258C19.586 24.2242 19.4922 24.1213 19.3962 24.016C19.0688 23.659 18.724 23.2826 18.4327 22.8288H13.3349C13.0425 23.2862 12.6977 23.6626 12.3692 24.0197C12.2743 24.1237 12.1805 24.2254 12.091 24.3258C11.3894 25.1185 10.8056 25.3921 10.3386 25.2965C9.97199 25.2214 9.69702 24.937 9.50825 24.5037C9.34131 24.1225 9.23983 23.6203 9.19946 23.0478C9.05434 20.9735 9.71448 17.8704 10.9693 16.4581C11.0228 16.3976 11.0926 16.3673 11.1635 16.3673V16.3661H11.1941C11.3479 16.1313 11.5389 15.9425 11.7538 15.7997C12.0801 15.5831 12.4598 15.4754 12.8373 15.4754C13.216 15.4754 13.5957 15.5831 13.9208 15.7997C14.1347 15.9413 14.3256 16.1301 14.4773 16.3649H15.3404C15.2738 14.5592 15.7267 14.1042 16.3955 14.0533C16.6378 14.0352 16.8942 14.0824 17.1626 14.132C17.67 14.2252 18.2308 14.3281 18.6291 13.8863C18.736 13.7677 18.9084 13.7677 19.0154 13.8863C19.1223 14.0049 19.1223 14.1961 19.0154 14.3147C18.4196 14.9767 17.7136 14.8472 17.0753 14.7299C16.8385 14.6863 16.6138 14.6451 16.4315 14.6572C16.0704 14.6839 15.8303 15.0179 15.8871 16.3661H17.2914C17.4441 16.1313 17.6362 15.9413 17.85 15.7997C18.1763 15.5831 18.556 15.4754 18.9324 15.4754C19.3089 15.4754 19.6886 15.5843 20.0149 15.7997C20.2298 15.9425 20.4218 16.1313 20.5746 16.3673Z" fill="#262626"/>
<path d="M19.3716 17.3164C19.5484 17.5125 19.6368 17.7679 19.6368 18.0244C19.6368 18.2798 19.5484 18.5351 19.3716 18.7312L19.3705 18.7324C19.1938 18.9285 18.9635 19.0265 18.7333 19.0265C18.5031 19.0265 18.2728 18.9285 18.0961 18.7324L18.095 18.7312C17.9182 18.5351 17.8298 18.2798 17.8298 18.0244C17.8298 17.7679 17.9182 17.5125 18.095 17.3164C18.2707 17.1216 18.502 17.0236 18.7333 17.0236C18.9635 17.0236 19.1938 17.1216 19.3705 17.3164H19.3716Z" fill="black"/>
<path d="M19.1391 17.5742C19.3639 17.8235 19.3639 18.2253 19.1391 18.4746C18.9143 18.7239 18.552 18.7239 18.3273 18.4746C18.1025 18.2253 18.1025 17.8235 18.3273 17.5742C18.551 17.3273 18.9143 17.3273 19.1391 17.5742Z" fill="#FFD54F"/>
<path d="M17.9934 18.6444C18.0011 18.6529 18.0076 18.6614 18.0142 18.6699C18.1768 18.8623 18.2586 19.108 18.2586 19.3524C18.2586 19.6078 18.1702 19.8632 17.9934 20.0592L17.9924 20.0604L17.9934 20.0616C17.8167 20.2577 17.5864 20.3557 17.3551 20.3557C17.1238 20.3557 16.8936 20.2577 16.7168 20.0616C16.54 19.8656 16.4517 19.6102 16.4517 19.3536C16.4517 19.0971 16.54 18.8417 16.7168 18.6457L16.7179 18.6444C16.7255 18.636 16.7332 18.6287 16.7408 18.6202C16.9143 18.4411 17.1347 18.3516 17.3551 18.3516C17.5854 18.3516 17.8156 18.4496 17.9924 18.6444H17.9934Z" fill="black"/>
<path d="M17.7609 18.9019C17.9857 19.1512 17.9857 19.553 17.7609 19.8023C17.5361 20.0516 17.1739 20.0516 16.9491 19.8023C16.7243 19.553 16.7243 19.1512 16.9491 18.9019C17.1739 18.6538 17.5372 18.6538 17.7609 18.9019Z" fill="#2196F3"/>
<path d="M20.7482 18.6443C20.925 18.8404 21.0133 19.0957 21.0133 19.3523C21.0133 19.6089 20.925 19.8642 20.7482 20.0603C20.5714 20.2563 20.3412 20.3544 20.1099 20.3544C19.8796 20.3544 19.6494 20.2563 19.4727 20.0603L19.4716 20.0591L19.4705 20.0603C19.2937 19.8642 19.2053 19.6089 19.2053 19.3523C19.2053 19.0957 19.2937 18.8404 19.4705 18.6443C19.6472 18.4482 19.8775 18.3502 20.1088 18.3502C20.3401 18.3502 20.5714 18.4495 20.7482 18.6443Z" fill="black"/>
<path d="M20.5163 18.9019C20.7411 19.1512 20.7411 19.553 20.5163 19.8023C20.2915 20.0516 19.9292 20.0516 19.7045 19.8023C19.4797 19.553 19.4797 19.1512 19.7045 18.9019C19.9292 18.6538 20.2915 18.6538 20.5163 18.9019Z" fill="#F44336"/>
<path d="M19.3716 20.0928C19.5484 20.2889 19.6368 20.5442 19.6368 20.8008C19.6368 21.0562 19.5484 21.3115 19.3716 21.5076L19.3705 21.5088L19.3716 21.51C19.1949 21.7061 18.9646 21.8041 18.7333 21.8041C18.502 21.8041 18.2717 21.7061 18.095 21.51C18.0873 21.5015 18.0808 21.4931 18.0743 21.4846C17.9117 21.2922 17.8298 21.0465 17.8298 20.802C17.8298 20.5454 17.9182 20.2901 18.095 20.094C18.1026 20.0856 18.1092 20.0783 18.1179 20.071C18.2914 19.8907 18.5118 19.8011 18.7333 19.8011C18.9635 19.8011 19.1938 19.8992 19.3705 20.094H19.3716V20.0928Z" fill="black"/>
<path d="M19.1391 20.3507C19.3639 20.6 19.3639 21.0018 19.1391 21.2511C18.9143 21.5004 18.552 21.5004 18.3273 21.2511C18.1025 21.0018 18.1025 20.6 18.3273 20.3507C18.551 20.1038 18.9143 20.1038 19.1391 20.3507Z" fill="#4CAF50"/>
<path fill-rule="evenodd" clip-rule="evenodd" d="M12.8344 17.5876C13.177 17.5876 13.4563 17.8987 13.4563 18.2775V19.0835H14.183C14.5256 19.0835 14.805 19.3945 14.805 19.7733C14.805 20.1534 14.5245 20.4632 14.183 20.4632H13.4563V21.2692C13.4563 21.6492 13.1759 21.959 12.8344 21.959C12.4918 21.959 12.2124 21.648 12.2124 21.2692V20.4632H11.4857C11.1431 20.4632 10.8638 20.1521 10.8638 19.7733C10.8638 19.3933 11.1442 19.0835 11.4857 19.0835H12.2124V18.2775C12.2124 17.8987 12.4918 17.5876 12.8344 17.5876Z" fill="white"/>
<path fill-rule="evenodd" clip-rule="evenodd" d="M14.5221 19.7988L14.1261 20.2381V19.3595L14.5221 19.7988ZM12.8538 17.9484L13.2499 18.3877H12.4577L12.8538 17.9484ZM11.1865 19.7988L11.5826 20.2381V19.3595L11.1865 19.7988ZM12.8538 21.6481L13.2499 21.2087H12.4577L12.8538 21.6481Z" fill="#262626"/>
<path d="M48.621 17.2H55.146V26.275C54.2626 26.5917 53.321 26.8333 52.321 27C51.3376 27.1667 50.2543 27.25 49.071 27.25C47.3876 27.25 45.946 26.8917 44.746 26.175C43.5626 25.4583 42.6543 24.4167 42.021 23.05C41.3876 21.6833 41.071 20.0167 41.071 18.05C41.071 16.1833 41.4126 14.5667 42.096 13.2C42.7793 11.8333 43.771 10.775 45.071 10.025C46.371 9.275 47.9626 8.9 49.846 8.9C50.796 8.9 51.7043 9 52.571 9.2C53.4543 9.38333 54.2543 9.64167 54.971 9.975L53.846 12.6C53.2626 12.3167 52.6293 12.0833 51.946 11.9C51.2793 11.7 50.5626 11.6 49.796 11.6C48.6626 11.6 47.7043 11.8667 46.921 12.4C46.1543 12.9333 45.5626 13.6917 45.146 14.675C44.746 15.6417 44.546 16.7833 44.546 18.1C44.546 19.3667 44.721 20.4917 45.071 21.475C45.421 22.4417 45.946 23.2 46.646 23.75C47.3626 24.2833 48.2876 24.55 49.421 24.55C49.771 24.55 50.096 24.5333 50.396 24.5C50.696 24.4667 50.971 24.425 51.221 24.375C51.4876 24.325 51.721 24.275 51.921 24.225V19.925H48.621V17.2ZM69.3346 27L67.9596 22.275H61.8596L60.4846 27H56.8846L62.8846 9.075H66.9096L72.9346 27H69.3346ZM65.7346 14.925C65.668 14.6583 65.5763 14.3417 65.4596 13.975C65.3596 13.5917 65.2596 13.2 65.1596 12.8C65.0763 12.4 64.993 12.025 64.9096 11.675C64.843 12.075 64.7596 12.475 64.6596 12.875C64.5596 13.2583 64.4596 13.625 64.3596 13.975C64.2763 14.325 64.193 14.6417 64.1096 14.925L62.7096 19.525H67.1596L65.7346 14.925ZM82.2747 27L77.9247 12.375H77.8247C77.8413 12.7083 77.8663 13.1833 77.8997 13.8C77.933 14.4 77.958 15.0583 77.9747 15.775C78.008 16.475 78.0247 17.1333 78.0247 17.75V27H75.0247V9.15H79.6247L83.8747 23.175H83.9497L88.2747 9.15H92.8997V27H89.7497V17.6C89.7497 17.0333 89.758 16.4167 89.7747 15.75C89.7913 15.0667 89.8163 14.425 89.8497 13.825C89.883 13.2083 89.908 12.7333 89.9247 12.4H89.8247L85.3497 27H82.2747ZM106.72 27H97.095V9.15H106.72V11.825H100.445V16.375H106.32V19.05H100.445V24.3H106.72V27ZM113.157 12.5C113.157 13.0333 113.14 13.55 113.107 14.05C113.09 14.55 113.065 14.9417 113.032 15.225H113.157C113.507 14.6583 113.973 14.1833 114.557 13.8C115.14 13.4 115.907 13.2 116.857 13.2C118.29 13.2 119.457 13.7917 120.357 14.975C121.273 16.1583 121.732 17.9 121.732 20.2C121.732 21.75 121.523 23.05 121.107 24.1C120.707 25.15 120.132 25.9417 119.382 26.475C118.632 26.9917 117.757 27.25 116.757 27.25C115.823 27.25 115.073 27.0667 114.507 26.7C113.957 26.3333 113.507 25.9083 113.157 25.425H112.932L112.382 27H109.857V8H113.157V12.5ZM115.807 15.75C115.173 15.75 114.665 15.9 114.282 16.2C113.898 16.5 113.615 16.9583 113.432 17.575C113.265 18.1917 113.182 18.975 113.182 19.925V20.2C113.182 21.65 113.373 22.7583 113.757 23.525C114.14 24.2917 114.848 24.675 115.882 24.675C116.682 24.675 117.29 24.2917 117.707 23.525C118.14 22.7417 118.357 21.625 118.357 20.175C118.357 18.7083 118.14 17.6083 117.707 16.875C117.29 16.125 116.657 15.75 115.807 15.75ZM136.301 20.2C136.301 21.3333 136.16 22.3333 135.876 23.2C135.593 24.0667 135.176 24.8083 134.626 25.425C134.093 26.025 133.443 26.4833 132.676 26.8C131.91 27.1 131.051 27.25 130.101 27.25C129.218 27.25 128.393 27.1 127.626 26.8C126.876 26.4833 126.226 26.025 125.676 25.425C125.143 24.8083 124.726 24.0667 124.426 23.2C124.126 22.3333 123.976 21.3333 123.976 20.2C123.976 18.7 124.218 17.4333 124.701 16.4C125.201 15.35 125.918 14.5583 126.851 14.025C127.785 13.475 128.893 13.2 130.176 13.2C131.376 13.2 132.435 13.475 133.351 14.025C134.268 14.5583 134.985 15.35 135.501 16.4C136.035 17.4333 136.301 18.7 136.301 20.2ZM127.351 20.2C127.351 21.15 127.451 21.9667 127.651 22.65C127.851 23.3167 128.151 23.825 128.551 24.175C128.968 24.525 129.501 24.7 130.151 24.7C130.801 24.7 131.326 24.525 131.726 24.175C132.143 23.825 132.443 23.3167 132.626 22.65C132.826 21.9667 132.926 21.15 132.926 20.2C132.926 19.2333 132.826 18.425 132.626 17.775C132.426 17.1083 132.118 16.6083 131.701 16.275C131.301 15.925 130.776 15.75 130.126 15.75C129.143 15.75 128.435 16.1333 128.001 16.9C127.568 17.6667 127.351 18.7667 127.351 20.2ZM141.538 20.075L137.363 13.45H141.138L143.738 18.05L146.338 13.45H150.088L145.863 20.075L150.288 27H146.538L143.738 22.075L140.913 27H137.163L141.538 20.075Z" fill="white"/>
</svg>
