<svg width="339" height="29" viewBox="0 0 339 29" fill="none" xmlns="http://www.w3.org/2000/svg">
<rect x="0.25" y="1.25" width="338.5" height="27.5" rx="4.75" fill="url(#paint0_linear_51_493)" stroke="black" stroke-width="0.5"/>
<path d="M309 13.3228C309 17.9142 312.735 21.6455 317.321 21.6455C319.434 21.6455 321.367 20.8509 322.837 19.5484L328.14 24.8526C328.238 24.9508 328.365 25 328.496 25C328.627 25 328.754 24.9508 328.853 24.8526C329.049 24.6559 329.049 24.3406 328.853 24.144L323.545 18.8399C324.848 17.3694 325.642 15.4403 325.642 13.3228C325.642 8.73131 321.907 5 317.321 5C312.735 5 309 8.73131 309 13.3228ZM324.639 13.3228C324.639 17.3572 321.355 20.642 317.321 20.642C313.287 20.642 310.003 17.3572 310.003 13.3228C310.003 9.28835 313.287 6.00348 317.321 6.00348C321.355 6.00348 324.639 9.28425 324.639 13.3228Z" fill="black"/>
<path d="M20.7591 18.18C20.7591 18.82 20.5991 19.3667 20.2791 19.82C19.9591 20.2733 19.4924 20.62 18.8791 20.86C18.2658 21.0867 17.5191 21.2 16.6391 21.2C15.9058 21.2 15.2524 21.1333 14.6791 21C14.1058 20.8667 13.6191 20.7067 13.2191 20.52V19.42C13.6991 19.66 14.2391 19.86 14.8391 20.02C15.4391 20.1667 16.0458 20.24 16.6591 20.24C17.7258 20.24 18.4924 20.0667 18.9591 19.72C19.4258 19.36 19.6591 18.8733 19.6591 18.26C19.6591 17.86 19.5458 17.5333 19.3191 17.28C19.1058 17.0133 18.7791 16.78 18.3391 16.58C17.9124 16.3667 17.3791 16.1533 16.7391 15.94C16.0858 15.7133 15.5058 15.4867 14.9991 15.26C14.4924 15.02 14.0991 14.72 13.8191 14.36C13.5391 14 13.3991 13.5067 13.3991 12.88C13.3991 12.0267 13.7458 11.36 14.4391 10.88C15.1324 10.4 16.0591 10.16 17.2191 10.16C17.8591 10.16 18.4524 10.22 18.9991 10.34C19.5591 10.46 20.0658 10.62 20.5191 10.82L20.1191 11.76C19.8524 11.64 19.5524 11.5333 19.2191 11.44C18.8858 11.3333 18.5458 11.2533 18.1991 11.2C17.8524 11.1467 17.5058 11.12 17.1591 11.12C16.3191 11.12 15.6658 11.2667 15.1991 11.56C14.7324 11.8533 14.4991 12.28 14.4991 12.84C14.4991 13.2667 14.6058 13.6067 14.8191 13.86C15.0458 14.1 15.3724 14.3067 15.7991 14.48C16.2391 14.6533 16.7658 14.8533 17.3791 15.08C18.0058 15.2933 18.5724 15.52 19.0791 15.76C19.5991 16 20.0058 16.3067 20.2991 16.68C20.6058 17.0533 20.7591 17.5533 20.7591 18.18ZM27.4546 10.16C28.3746 10.16 29.1346 10.3733 29.7346 10.8C30.3479 11.2133 30.8079 11.7867 31.1146 12.52C31.4346 13.2533 31.5946 14.1 31.5946 15.06V15.82H23.9946C23.9946 17.2467 24.3212 18.3333 24.9746 19.08C25.6412 19.8267 26.5812 20.2 27.7946 20.2C28.4612 20.2 29.0412 20.1467 29.5346 20.04C30.0279 19.9333 30.5679 19.7467 31.1546 19.48V20.52C30.6212 20.76 30.0946 20.9333 29.5746 21.04C29.0546 21.1467 28.4479 21.2 27.7546 21.2C26.7012 21.2 25.8012 20.98 25.0546 20.54C24.3212 20.1 23.7612 19.4733 23.3746 18.66C23.0012 17.8333 22.8146 16.8733 22.8146 15.78C22.8146 14.6867 22.9946 13.72 23.3546 12.88C23.7146 12.04 24.2412 11.38 24.9346 10.9C25.6279 10.4067 26.4679 10.16 27.4546 10.16ZM27.4546 11.12C26.4679 11.12 25.6746 11.4467 25.0746 12.1C24.4746 12.74 24.1212 13.6667 24.0146 14.88H30.4146C30.4146 14.1333 30.3079 13.48 30.0946 12.92C29.8812 12.36 29.5546 11.92 29.1146 11.6C28.6879 11.28 28.1346 11.12 27.4546 11.12ZM38.2297 10.18C39.4297 10.18 40.3231 10.4733 40.9097 11.06C41.4964 11.6467 41.7897 12.58 41.7897 13.86V21H40.9297L40.7297 19.2H40.6697C40.4164 19.6 40.1231 19.9533 39.7897 20.26C39.4697 20.5533 39.0764 20.7867 38.6097 20.96C38.1564 21.12 37.5964 21.2 36.9297 21.2C36.2631 21.2 35.6831 21.0867 35.1897 20.86C34.6964 20.62 34.3164 20.28 34.0497 19.84C33.7831 19.4 33.6497 18.86 33.6497 18.22C33.6497 17.1667 34.0831 16.3667 34.9497 15.82C35.8164 15.26 37.0764 14.94 38.7297 14.86L40.6697 14.78V14.02C40.6697 12.9667 40.4564 12.2267 40.0297 11.8C39.6164 11.36 38.9964 11.14 38.1697 11.14C37.6231 11.14 37.0964 11.2133 36.5897 11.36C36.0964 11.4933 35.5964 11.6867 35.0897 11.94L34.7297 11.04C35.2231 10.7867 35.7697 10.58 36.3697 10.42C36.9697 10.26 37.5897 10.18 38.2297 10.18ZM38.8497 15.7C37.5031 15.7667 36.4964 16.0067 35.8297 16.42C35.1631 16.82 34.8297 17.4267 34.8297 18.24C34.8297 18.8933 35.0364 19.3933 35.4497 19.74C35.8631 20.0733 36.4231 20.24 37.1297 20.24C38.2631 20.24 39.1297 19.9267 39.7297 19.3C40.3431 18.6733 40.6564 17.7933 40.6697 16.66V15.62L38.8497 15.7ZM49.5524 10.18C49.819 10.18 50.0724 10.2 50.3124 10.24C50.5657 10.2667 50.7924 10.3067 50.9924 10.36L50.8324 11.4C50.619 11.3467 50.4057 11.3067 50.1924 11.28C49.979 11.24 49.7457 11.22 49.4924 11.22C49.0124 11.22 48.579 11.3133 48.1924 11.5C47.8057 11.6867 47.4724 11.9533 47.1924 12.3C46.9124 12.6467 46.699 13.06 46.5524 13.54C46.4057 14.02 46.3324 14.56 46.3324 15.16V21H45.1924V10.36H46.1524L46.2724 12.36H46.3324C46.5057 11.9467 46.739 11.58 47.0324 11.26C47.339 10.9267 47.7057 10.6667 48.1324 10.48C48.559 10.28 49.0324 10.18 49.5524 10.18ZM56.9328 21.2C55.8928 21.2 55.0062 20.9867 54.2728 20.56C53.5528 20.12 52.9995 19.4933 52.6128 18.68C52.2395 17.8667 52.0528 16.8867 52.0528 15.74C52.0528 14.54 52.2662 13.5267 52.6928 12.7C53.1328 11.8733 53.7328 11.2467 54.4928 10.82C55.2528 10.38 56.1462 10.16 57.1728 10.16C57.6795 10.16 58.1528 10.2133 58.5928 10.32C59.0462 10.4133 59.4462 10.54 59.7928 10.7L59.4928 11.66C59.1328 11.5133 58.7462 11.4 58.3328 11.32C57.9195 11.2267 57.5262 11.18 57.1528 11.18C56.2995 11.18 55.5795 11.3667 54.9928 11.74C54.4195 12.1 53.9795 12.62 53.6728 13.3C53.3795 13.98 53.2328 14.7933 53.2328 15.74C53.2328 16.62 53.3595 17.4 53.6128 18.08C53.8795 18.7467 54.2862 19.2667 54.8328 19.64C55.3795 20.0133 56.0795 20.2 56.9328 20.2C57.4528 20.2 57.9395 20.1467 58.3928 20.04C58.8595 19.9333 59.2862 19.7933 59.6728 19.62V20.66C59.3262 20.8067 58.9262 20.9333 58.4728 21.04C58.0195 21.1467 57.5062 21.2 56.9328 21.2ZM63.3046 10.68C63.3046 10.9467 63.2979 11.2067 63.2846 11.46C63.2712 11.7133 63.2579 11.9667 63.2446 12.22H63.3246C63.5112 11.82 63.7712 11.4667 64.1046 11.16C64.4379 10.8533 64.8379 10.6133 65.3046 10.44C65.7846 10.2667 66.3246 10.18 66.9246 10.18C67.7379 10.18 68.4246 10.32 68.9846 10.6C69.5446 10.8667 69.9646 11.2867 70.2446 11.86C70.5379 12.42 70.6846 13.1533 70.6846 14.06V21H69.5646V14.12C69.5646 13.0933 69.3312 12.34 68.8646 11.86C68.3979 11.38 67.7112 11.14 66.8046 11.14C66.0312 11.14 65.3846 11.2933 64.8646 11.6C64.3446 11.8933 63.9512 12.3467 63.6846 12.96C63.4312 13.56 63.3046 14.3067 63.3046 15.2V21H62.1846V5.8H63.3046V10.68Z" fill="black"/>
<defs>
<linearGradient id="paint0_linear_51_493" x1="170" y1="1" x2="170" y2="29" gradientUnits="userSpaceOnUse">
<stop stop-color="#E3E3E3" stop-opacity="0.36"/>
<stop offset="1" stop-color="#5D5656"/>
<stop offset="1" stop-color="#795E5E" stop-opacity="0.23"/>
</linearGradient>
</defs>
</svg>
