<svg width="65" height="96" viewBox="0 0 65 96" fill="none" xmlns="http://www.w3.org/2000/svg">
<path d="M2.95454 0H62.0455C63.6772 0 65 1.95375 65 4.36364V91.6364C65 94.0462 63.6772 96 62.0455 96H2.95454C1.32285 96 0 94.0462 0 91.6364V4.36364C0 1.95375 1.32285 0 2.95454 0ZM22.5322 68.1873C21.3783 69.8912 21.3783 72.6543 22.5322 74.3584C23.1089 75.2102 23.865 75.6364 24.6212 75.6364C25.3774 75.6364 26.1335 75.2105 26.7103 74.3581L42.4678 51.086C43.0219 50.2676 43.3333 49.1578 43.3333 48.0006C43.3333 46.8433 43.0221 45.7332 42.4678 44.9149L26.7103 21.6416C25.5566 19.9375 23.6858 19.9375 22.532 21.6416C21.3781 23.3455 21.3781 26.1085 22.532 27.8127L36.2003 48.0006L22.5322 68.1873Z" fill="#CECECE"/>
</svg>
