<svg width="65" height="96" viewBox="0 0 65 96" fill="none" xmlns="http://www.w3.org/2000/svg">
<path d="M62.0455 96L2.95455 96C1.32285 96 0 94.0463 0 91.6364L0 4.36364C0 1.95375 1.32285 0 2.95455 0L62.0455 0C63.6772 0 65 1.95375 65 4.36364L65 91.6364C65 94.0463 63.6772 96 62.0455 96ZM42.4678 27.8127C43.6217 26.1088 43.6217 23.3457 42.4678 21.6416C41.8911 20.7898 41.135 20.3636 40.3788 20.3636C39.6226 20.3636 38.8665 20.7895 38.2897 21.6419L22.5322 44.914C21.9781 45.7324 21.6667 46.8422 21.6667 47.9994C21.6667 49.1567 21.9779 50.2668 22.5322 51.0851L38.2897 74.3584C39.4434 76.0625 41.3142 76.0625 42.468 74.3584C43.6219 72.6545 43.6219 69.8915 42.468 68.1873L28.7997 47.9994L42.4678 27.8127Z" fill="#CECECE"/>
</svg>
