<svg width="461" height="575" viewBox="0 0 461 575" fill="none" xmlns="http://www.w3.org/2000/svg">
<path d="M276.384 228.915C319.904 196.621 362.28 214.023 406.487 229.464C451.014 244.994 487.242 251.724 531.049 219.006L548.066 238.817C496.091 277.664 451.061 268.698 404.873 252.56C363.07 237.959 328.443 222.219 293.112 248.47L276.384 228.915Z" fill="#324D5B"/>
<path d="M198.776 140.775L436.797 419.063C446.182 430.036 444.229 446.044 432.414 454.813L293.41 557.978C281.594 566.748 264.408 564.945 255.023 553.972L17.0018 275.684C7.61695 264.712 9.56988 248.704 21.3856 239.934L160.389 136.769C172.205 128 189.391 129.803 198.776 140.775Z" fill="#EBEBEB"/>
<path d="M154.062 231.348L166.844 246.289L182.921 234.359C191.796 227.773 204.725 229.123 211.78 237.37C218.836 245.618 217.359 257.657 208.485 264.242L192.407 276.172L205.189 291.114C212.245 299.362 210.768 311.401 201.894 317.986C193.018 324.572 180.089 323.222 173.034 314.975L160.254 300.034L144.176 311.965C135.301 318.551 122.372 317.2 115.317 308.953C108.261 300.705 109.728 288.675 118.613 282.081L134.69 270.151L121.907 255.208C114.851 246.96 116.329 234.921 125.203 228.336C134.077 221.751 147.006 223.099 154.062 231.348Z" fill="#324D5B"/>
<path d="M263.609 400.982C273.016 411.98 271.048 428.032 259.214 436.813C247.37 445.602 230.142 443.795 220.734 432.798C211.327 421.801 213.284 405.756 225.128 396.967C236.963 388.187 254.2 389.984 263.609 400.982Z" fill="#E2574C"/>
<path d="M359.815 410.335C369.222 421.333 367.254 437.385 355.42 446.166C343.576 454.955 326.348 453.148 316.94 442.151C307.532 431.153 309.49 415.109 321.334 406.32C333.168 397.539 350.408 399.339 359.815 410.335Z" fill="#3DB39E"/>
</svg>
