<svg width="511" height="684" viewBox="0 0 511 684" fill="none" xmlns="http://www.w3.org/2000/svg">
<g clip-path="url(#clip0_8_20)">
<path d="M230.912 347.798C235.521 352.631 234.957 360.347 229.623 365.435L189.912 403.312C184.578 408.4 176.844 408.599 172.235 403.767L122.557 351.685C117.948 346.852 118.512 339.137 123.846 334.048L163.557 296.171C168.891 291.083 176.625 290.884 181.234 295.716L230.912 347.798Z" fill="#3A2819"/>
<path d="M491.539 312.492C498.196 319.472 499.952 333.179 492.247 340.528L152.038 665.032C144.332 672.381 130.723 669.98 124.066 663L0.639794 533.601C-6.01803 526.621 -4.18816 516.672 3.51692 509.323L343.726 184.819C351.431 177.47 361.455 176.112 368.113 183.092L491.539 312.492Z" fill="#A09D93"/>
<path d="M475.662 295.847C482.32 302.827 479.466 311.702 471.761 319.051L131.552 643.555C123.847 650.904 114.847 653.336 108.189 646.356L-15.2365 516.956C-21.8944 509.976 -19.5524 500.564 -11.8473 493.215L328.362 168.712C336.067 161.362 345.579 159.467 352.237 166.448L475.662 295.847Z" fill="#D8D6CA"/>
<path d="M-13.6254 494.911L328.362 168.712C336.067 161.362 345.579 159.467 352.237 166.447L475.662 295.847C482.32 302.827 479.466 311.702 471.761 319.051" fill="#C1BDAE"/>
<path d="M247.519 377.077C248.031 377.613 247.951 378.716 247.358 379.281L202.313 422.247C201.72 422.812 200.615 422.84 200.103 422.303L191.909 413.713C191.397 413.176 191.477 412.073 192.07 411.508L237.115 368.543C237.708 367.977 238.813 367.949 239.325 368.486L247.519 377.077Z" fill="#F9A12C"/>
<path d="M196.812 406.985L238.301 367.412L247.519 377.077C248.031 377.613 247.951 378.716 247.358 379.281" fill="#E88813"/>
<path d="M273.126 403.923C273.638 404.46 273.558 405.562 272.965 406.127L227.92 449.093C227.327 449.658 226.222 449.687 225.71 449.15L217.516 440.559C217.004 440.022 217.084 438.92 217.677 438.354L262.722 395.389C263.315 394.824 264.42 394.795 264.932 395.332L273.126 403.923Z" fill="#F9A12C"/>
<path d="M222.419 433.832L263.908 394.258L273.126 403.923C273.638 404.46 273.558 405.562 272.965 406.127" fill="#E88813"/>
<path d="M224.024 494.851C228.634 499.684 230.199 508.445 224.864 513.533L128.847 605.117C123.513 610.205 116.021 607.098 111.412 602.265L28.957 515.82C24.3477 510.988 21.085 502.82 26.4193 497.732L121.844 406.713C127.178 401.625 135.856 403.602 140.977 408.971L223.432 495.417L224.024 494.851Z" fill="#3A2819"/>
<path d="M432.493 298.057C437.102 302.89 436.458 311.708 431.124 316.796L332.736 410.642C327.401 415.73 318.563 415.957 313.953 411.125L228.938 321.995C224.329 317.162 224.973 308.344 230.308 303.256L328.696 209.41C334.03 204.322 342.869 204.095 347.478 208.927L432.493 298.057Z" fill="#3A2819"/>
<path d="M143.469 457.866L131.615 469.172L118.299 455.212C114.714 451.454 106.98 451.653 103.424 455.045L76.7527 480.485C72.6038 484.442 73.2253 491.027 76.8103 494.786L90.1259 508.746L77.0866 521.183C72.9377 525.141 72.8571 526.243 76.4421 530.002L99.4884 554.163C103.073 557.922 108.787 562.726 112.936 558.768L125.976 546.331L134.682 555.459C138.267 559.217 144.303 559.612 148.452 555.655L175.124 530.215C179.273 526.257 179.244 519.107 176.171 515.885L167.465 506.757L179.319 495.451C183.468 491.493 180.124 484.428 176.539 480.669L153.493 456.508C149.908 452.749 147.618 453.908 143.469 457.866Z" fill="#EA1F0A"/>
<path d="M125.976 546.331L134.682 555.459C138.267 559.217 144.303 559.612 148.452 555.655L175.124 530.215C179.273 526.257 179.244 519.107 176.171 515.885L167.465 506.757L179.319 495.451C183.468 491.493 180.124 484.428 176.539 480.669L153.493 456.508C149.908 452.749 147.618 453.908 143.469 457.866L131.615 469.172" fill="#BC0400"/>
<path d="M318.395 289.989C329.15 301.265 327.269 319.466 315.415 330.773C302.968 342.645 284.779 342.563 274.536 331.824C263.781 320.549 265.662 302.347 277.516 291.04C289.37 279.734 308.153 279.251 318.395 289.989Z" fill="#329908"/>
<path d="M298.56 282.248C315.133 281.822 326.912 294.171 325.703 310.705C324.495 327.239 310.863 340.242 294.29 340.668" fill="#236D00"/>
<path d="M392.149 284.242C402.904 295.518 401.022 313.719 389.168 325.026C376.722 336.898 358.532 336.816 348.289 326.077C337.534 314.801 339.416 296.6 351.27 285.293C362.612 273.45 381.394 272.967 392.149 284.242Z" fill="#07BED6"/>
<path d="M371.802 275.964C388.374 275.538 400.153 287.887 398.945 304.421C397.737 320.955 384.105 333.958 367.532 334.384" fill="#00A1AD"/>
<path d="M336.234 181.712C338.282 183.859 339.577 188.777 337.206 191.038L10.0366 503.104C7.66583 505.365 2.81489 503.84 0.76633 501.692C-1.28223 499.544 -2.57698 494.627 -0.206182 492.365L326.963 180.3C329.334 178.038 334.185 179.564 336.234 181.712Z" fill="#D8D6CA"/>
<path d="M138.577 298.464L120.796 315.424L85.4585 278.376C76.24 268.711 61.9577 267.978 51.8818 277.589C41.8059 287.199 39.7344 300.455 49.9772 311.194L32.1962 328.154C16.832 312.046 15.261 280.731 35.4128 261.509C55.5645 242.288 84.7219 243.188 102.135 261.444L137.984 299.029L138.577 298.464Z" fill="#4C5254"/>
<path d="M33.4046 311.62C28.663 316.142 28.0991 323.858 32.1962 328.154C41.4148 337.818 40.8796 352.685 30.2111 362.861C19.5425 373.037 5.26015 372.304 -3.95838 362.639L-85.9008 276.731L-103.682 293.691L-21.7393 379.599C-4.32656 397.855 25.4235 398.19 46.168 378.403C66.9124 358.616 67.9827 328.884 50.5699 310.628C46.4728 306.333 38.1462 307.097 33.4046 311.62Z" fill="#2F423F"/>
</g>
<defs>
<clipPath id="clip0_8_20">
<rect width="507.831" height="460.046" fill="white" transform="translate(-174 350.509) rotate(-43.6465)"/>
</clipPath>
</defs>
</svg>
