<svg width="357" height="339" viewBox="0 0 357 339" fill="none" xmlns="http://www.w3.org/2000/svg">
<path d="M351.075 157.437C352.834 156.679 354.149 155.046 354.471 153.22C354.792 151.393 354.068 149.688 352.597 148.814L309.117 122.972C307.895 122.246 306.315 122.189 304.854 122.821L243.722 149.209L297.685 181.281L351.075 157.437Z" fill="#FFD652"/>
<path d="M112.257 15.4965C112.251 13.6891 113.282 11.8871 114.919 10.843C116.557 9.79893 118.52 9.69109 119.991 10.5653L163.471 36.4076C164.692 37.1337 165.415 38.4455 165.419 39.9478L165.625 102.792L111.664 70.7201L112.257 15.4965Z" fill="#F7EDBC"/>
<path d="M297.683 181.28L111.598 70.6806L25.2225 197.187C23.6252 199.526 24.0689 202.456 26.2126 203.73L204.533 309.714C206.677 310.989 209.71 310.125 211.307 307.786L297.683 181.28Z" fill="#FFD652"/>
<path d="M297.683 181.28L244.11 149.439L157.734 275.945C156.137 278.284 156.581 281.214 158.724 282.488L204.534 309.715C206.678 310.989 209.711 310.125 211.308 307.786L297.683 181.28Z" fill="#F7EDBC"/>
<path d="M182.886 147.935L199.853 123.085L158.443 98.4736L141.476 123.323C139.879 125.662 140.323 128.592 142.466 129.866L176.112 149.863C178.257 151.138 181.289 150.274 182.886 147.935Z" fill="#FB9D46"/>
<path d="M180.488 177.446L180.676 177.557C181.218 177.877 181.525 178.413 181.581 178.987C183.871 191.893 175.776 212.199 166.644 223.596C164.111 226.755 161.462 229.285 158.887 230.855C155.955 232.646 153.078 233.26 150.442 232.314C147.084 231.108 144.449 227.328 143.127 220.101C142.954 219.172 142.764 218.224 142.57 217.253C141.902 213.955 141.2 210.48 141.147 206.758L108.642 187.563C104.959 189.108 101.265 189.987 97.7515 190.815C96.7325 191.06 95.7301 191.295 94.7603 191.539C87.1358 193.483 82.3265 192.867 79.7288 190.555C77.6895 188.741 77.0668 186.06 77.5854 182.843C78.0363 180.009 79.3858 176.722 81.4038 173.259C88.7241 160.713 105.268 145.249 118.883 141.804C119.464 141.655 120.03 141.743 120.482 142.01L120.487 142.003L120.682 142.118C122.596 141.34 124.564 140.967 126.502 140.95C129.443 140.925 132.293 141.732 134.7 143.153C137.114 144.579 139.107 146.632 140.319 149.109C141.12 150.734 141.587 152.545 141.621 154.474L147.124 157.724C153.877 147.028 158.573 146.101 163.04 148.325C164.657 149.132 166.104 150.371 167.618 151.669C170.483 154.118 173.65 156.825 177.945 155.769C179.098 155.486 180.198 156.135 180.408 157.224C180.618 158.312 179.858 159.418 178.705 159.702C172.275 161.288 168.288 157.881 164.685 154.798C163.349 153.655 162.079 152.57 160.869 151.954C158.46 150.748 155.602 151.777 150.605 159.789L159.559 165.077C161.466 164.294 163.446 163.918 165.372 163.904C168.313 163.879 171.163 164.686 173.563 166.103C175.963 167.521 177.951 169.581 179.175 172.055C179.978 173.691 180.452 175.506 180.488 177.446Z" fill="#262626"/>
<path d="M169.099 178.699C169.447 180.496 168.996 182.302 167.978 183.784C166.964 185.258 165.389 186.4 163.486 186.868L163.474 186.871C161.571 187.339 159.716 187.039 158.251 186.174C156.786 185.309 155.709 183.877 155.362 182.081L155.36 182.07C155.013 180.273 155.463 178.467 156.477 176.992C157.495 175.511 159.071 174.368 160.974 173.901C162.865 173.436 164.726 173.739 166.199 174.609C167.664 175.474 168.741 176.906 169.093 178.695L169.099 178.699Z" fill="black"/>
<path d="M166.597 179.313C167.038 181.598 165.444 183.918 163.024 184.513C160.604 185.107 158.298 183.746 157.857 181.461C157.415 179.177 159.01 176.857 161.43 176.262C163.833 175.677 166.146 177.043 166.597 179.313Z" fill="#FFD54F"/>
<path d="M155.045 181.008C155.06 181.086 155.068 181.159 155.076 181.233C155.347 182.955 154.893 184.681 153.923 186.093C152.91 187.567 151.334 188.709 149.431 189.177L149.419 189.18L149.421 189.191C147.518 189.659 145.664 189.359 144.192 188.49C142.719 187.621 141.643 186.189 141.296 184.393C140.949 182.596 141.399 180.79 142.417 179.308C143.436 177.827 145.011 176.684 146.914 176.217L146.926 176.214C147.008 176.194 147.086 176.18 147.168 176.16C148.983 175.778 150.741 176.089 152.144 176.918C153.61 177.783 154.686 179.214 155.038 181.004L155.045 181.008Z" fill="black"/>
<path d="M152.543 181.621C152.985 183.905 151.39 186.225 148.97 186.82C146.55 187.415 144.245 186.053 143.803 183.769C143.362 181.485 144.956 179.165 147.376 178.57C149.791 177.982 152.104 179.348 152.543 181.621Z" fill="#2196F3"/>
<path d="M172.79 191.554C173.137 193.35 172.686 195.157 171.668 196.638C170.65 198.12 169.074 199.262 167.171 199.73C165.268 200.198 163.414 199.898 161.941 199.029C160.476 198.164 159.399 196.732 159.052 194.936L159.05 194.925L159.038 194.928C158.691 193.131 159.142 191.324 160.16 189.843C161.178 188.361 162.754 187.219 164.657 186.751C166.56 186.284 168.415 186.583 169.887 187.452C171.359 188.322 172.438 189.764 172.79 191.554Z" fill="black"/>
<path d="M170.29 192.169C170.731 194.453 169.137 196.773 166.717 197.368C164.297 197.962 161.991 196.601 161.55 194.316C161.108 192.032 162.703 189.712 165.122 189.117C167.538 188.53 169.843 189.891 170.29 192.169Z" fill="#F44336"/>
<path d="M158.273 194.556C158.62 196.352 158.169 198.159 157.151 199.641C156.138 201.115 154.562 202.257 152.659 202.725L152.647 202.728L152.649 202.739C150.746 203.207 148.892 202.907 147.42 202.038C145.947 201.168 144.871 199.737 144.524 197.941C144.509 197.863 144.501 197.79 144.492 197.716C144.221 195.994 144.675 194.268 145.645 192.856C146.663 191.375 148.239 190.232 150.142 189.765C150.225 189.744 150.295 189.727 150.379 189.718C152.199 189.329 153.957 189.64 155.367 190.473C156.833 191.338 157.909 192.769 158.261 194.559L158.268 194.563L158.273 194.556Z" fill="black"/>
<path d="M155.77 195.171C156.211 197.455 154.617 199.775 152.197 200.37C149.777 200.965 147.471 199.603 147.03 197.319C146.588 195.034 148.183 192.714 150.603 192.119C153.006 191.535 155.319 192.9 155.77 195.171Z" fill="#4CAF50"/>
<path fill-rule="evenodd" clip-rule="evenodd" d="M126.086 155.175C128.267 156.463 128.811 159.309 127.308 161.496L124.109 166.15L128.735 168.881C130.916 170.169 131.459 173.015 129.956 175.202C128.448 177.396 125.434 178.131 123.26 176.848L118.635 174.116L115.436 178.77C113.928 180.965 110.914 181.7 108.74 180.416C106.56 179.128 106.016 176.282 107.519 174.095L110.717 169.441L106.092 166.71C103.911 165.422 103.368 162.576 104.871 160.389C106.379 158.195 109.393 157.46 111.567 158.743L116.192 161.475L119.39 156.821C120.893 154.633 123.906 153.887 126.086 155.175Z" fill="white"/>
<path fill-rule="evenodd" clip-rule="evenodd" d="M128.059 174.286L123.795 175.334L127.282 170.261L128.059 174.286ZM124.783 157.331L125.561 161.356L120.519 158.379L124.783 157.331ZM106.828 161.749L107.606 165.775L111.093 160.701L106.828 161.749ZM110.103 178.694L114.367 177.646L109.325 174.668L110.103 178.694Z" fill="#262626"/>
</svg>
