<svg width="26" height="25" viewBox="0 0 26 25" fill="none" xmlns="http://www.w3.org/2000/svg">
<path d="M25.916 1.1246C26.0115 0.948797 26.0268 0.713481 25.9557 0.516858C25.8845 0.320235 25.7392 0.196045 25.5801 0.196045H20.877C20.7448 0.196045 20.6203 0.282045 20.5411 0.428202L17.2237 6.5411H23.0606L25.916 1.1246Z" fill="#FFD652"/>
<path d="M0.0839836 1.1246C-0.0114358 0.948797 -0.026811 0.713481 0.0443511 0.516858C0.115513 0.320235 0.26085 0.196045 0.419952 0.196045H5.12304C5.25518 0.196045 5.37969 0.282045 5.45895 0.428202L8.7763 6.5411H2.93945L0.0839836 1.1246Z" fill="#F7EDBC"/>
<path d="M23.0604 6.54102H2.93231V23.8737C2.93231 24.1942 3.12035 24.454 3.35222 24.454H22.6405C22.8724 24.454 23.0604 24.1942 23.0604 23.8737V6.54102Z" fill="#FFD652"/>
<path d="M23.0605 6.54102H17.2656V23.8737C17.2656 24.1942 17.4537 24.454 17.6855 24.454H22.6406C22.8725 24.454 23.0605 24.1942 23.0605 23.8737V6.54102Z" fill="#F7EDBC"/>
<path d="M12.4759 9.94087V6.53625H7.99677V9.94087C7.99677 10.2614 8.1848 10.5212 8.41667 10.5212H12.056C12.288 10.5212 12.4759 10.2613 12.4759 9.94087Z" fill="#FB9D46"/>
<path d="M13.8744 13.0038H13.8949C13.9542 13.0038 14.0066 13.0379 14.0416 13.09C14.909 14.2018 15.3643 16.6158 15.2632 18.2314C15.2351 18.6794 15.1644 19.0733 15.0481 19.3707C14.9158 19.7098 14.725 19.9323 14.4696 19.991C14.1442 20.0658 13.7375 19.8518 13.2487 19.2315C13.1856 19.152 13.1203 19.0715 13.0534 18.9891C12.8253 18.7097 12.5851 18.4152 12.3821 18.06H8.83054C8.62682 18.418 8.3866 18.7125 8.15778 18.9919C8.09164 19.0733 8.02627 19.1529 7.96393 19.2315C7.47513 19.8518 7.06844 20.0658 6.74308 19.991C6.48765 19.9323 6.29609 19.7098 6.16458 19.3707C6.04827 19.0724 5.97757 18.6794 5.94944 18.2314C5.84834 16.6082 6.30825 14.18 7.18246 13.0748C7.21971 13.0275 7.26836 13.0038 7.31778 13.0038V13.0029H7.33906C7.44625 12.8191 7.57928 12.6714 7.72904 12.5597C7.95633 12.3901 8.22088 12.3059 8.4839 12.3059C8.74768 12.3059 9.01223 12.3901 9.23876 12.5597C9.38776 12.6705 9.52079 12.8182 9.62646 13.0019H10.2278C10.1814 11.589 10.4969 11.2329 10.9629 11.1931C11.1316 11.1789 11.3103 11.2158 11.4973 11.2547C11.8508 11.3276 12.2415 11.4081 12.519 11.0624C12.5935 10.9696 12.7136 10.9696 12.7881 11.0624C12.8626 11.1552 12.8626 11.3048 12.7881 11.3977C12.373 11.9157 11.8812 11.8143 11.4365 11.7225C11.2715 11.6884 11.1149 11.6562 10.9879 11.6657C10.7363 11.6865 10.5691 11.9479 10.6086 13.0029H11.587C11.6934 12.8191 11.8272 12.6705 11.9762 12.5597C12.2035 12.3901 12.468 12.3059 12.7303 12.3059C12.9926 12.3059 13.2571 12.3911 13.4844 12.5597C13.6342 12.6714 13.7679 12.8191 13.8744 13.0038Z" fill="#262626"/>
<path d="M13.036 13.7465C13.1591 13.8999 13.2207 14.0998 13.2207 14.3005C13.2207 14.5004 13.1591 14.7002 13.036 14.8536L13.0352 14.8545C12.9121 15.008 12.7517 15.0847 12.5913 15.0847C12.4309 15.0847 12.2705 15.008 12.1473 14.8545L12.1466 14.8536C12.0234 14.7002 11.9619 14.5004 11.9619 14.3005C11.9619 14.0998 12.0234 13.8999 12.1466 13.7465C12.269 13.594 12.4301 13.5173 12.5913 13.5173C12.7517 13.5173 12.9121 13.594 13.0352 13.7465H13.036Z" fill="black"/>
<path d="M12.874 13.9482C13.0306 14.1433 13.0306 14.4577 12.874 14.6528C12.7174 14.8479 12.465 14.8479 12.3084 14.6528C12.1518 14.4577 12.1518 14.1433 12.3084 13.9482C12.4643 13.755 12.7174 13.755 12.874 13.9482Z" fill="#FFD54F"/>
<path d="M12.0759 14.7856C12.0812 14.7922 12.0858 14.7988 12.0904 14.8055C12.2036 14.956 12.2606 15.1483 12.2606 15.3396C12.2606 15.5394 12.1991 15.7392 12.0759 15.8927L12.0752 15.8936L12.0759 15.8946C11.9528 16.048 11.7924 16.1247 11.6312 16.1247C11.47 16.1247 11.3096 16.048 11.1865 15.8946C11.0633 15.7411 11.0018 15.5413 11.0018 15.3405C11.0018 15.1398 11.0633 14.9399 11.1865 14.7865L11.1873 14.7856C11.1926 14.7789 11.1979 14.7733 11.2032 14.7666C11.3241 14.6265 11.4776 14.5564 11.6312 14.5564C11.7916 14.5564 11.952 14.6331 12.0752 14.7856H12.0759Z" fill="black"/>
<path d="M11.9139 14.9872C12.0705 15.1822 12.0705 15.4967 11.9139 15.6918C11.7573 15.8868 11.5049 15.8868 11.3483 15.6918C11.1917 15.4967 11.1917 15.1822 11.3483 14.9872C11.5049 14.793 11.7581 14.793 11.9139 14.9872Z" fill="#2196F3"/>
<path d="M13.9953 14.7855C14.1184 14.939 14.18 15.1388 14.18 15.3396C14.18 15.5403 14.1184 15.7402 13.9953 15.8936C13.8721 16.047 13.7117 16.1237 13.5505 16.1237C13.3901 16.1237 13.2297 16.047 13.1066 15.8936L13.1058 15.8926L13.1051 15.8936C12.9819 15.7402 12.9203 15.5403 12.9203 15.3396C12.9203 15.1388 12.9819 14.939 13.1051 14.7855C13.2282 14.6321 13.3886 14.5554 13.5498 14.5554C13.7109 14.5554 13.8721 14.6331 13.9953 14.7855Z" fill="black"/>
<path d="M13.8335 14.9872C13.9901 15.1822 13.9901 15.4967 13.8335 15.6918C13.6769 15.8868 13.4245 15.8868 13.2679 15.6918C13.1113 15.4967 13.1113 15.1822 13.2679 14.9872C13.4245 14.793 13.6769 14.793 13.8335 14.9872Z" fill="#F44336"/>
<path d="M13.036 15.919C13.1591 16.0724 13.2207 16.2723 13.2207 16.473C13.2207 16.6729 13.1591 16.8727 13.036 17.0261L13.0352 17.0271L13.036 17.028C12.9128 17.1814 12.7524 17.2581 12.5913 17.2581C12.4301 17.2581 12.2697 17.1814 12.1466 17.028C12.1413 17.0214 12.1367 17.0147 12.1321 17.0081C12.0189 16.8575 11.9619 16.6653 11.9619 16.474C11.9619 16.2732 12.0234 16.0734 12.1466 15.92C12.1519 15.9133 12.1565 15.9077 12.1625 15.902C12.2834 15.7609 12.437 15.6908 12.5913 15.6908C12.7517 15.6908 12.9121 15.7675 13.0352 15.92H13.036V15.919Z" fill="black"/>
<path d="M12.874 16.1207C13.0306 16.3158 13.0306 16.6302 12.874 16.8253C12.7174 17.0204 12.465 17.0204 12.3084 16.8253C12.1518 16.6302 12.1518 16.3158 12.3084 16.1207C12.4643 15.9275 12.7174 15.9275 12.874 16.1207Z" fill="#4CAF50"/>
<path fill-rule="evenodd" clip-rule="evenodd" d="M8.48166 13.9587C8.72036 13.9587 8.91496 14.2021 8.91496 14.4985V15.1293H9.42125C9.65995 15.1293 9.85455 15.3727 9.85455 15.6691C9.85455 15.9664 9.65918 16.2089 9.42125 16.2089H8.91496V16.8396C8.91496 17.137 8.7196 17.3794 8.48166 17.3794C8.24296 17.3794 8.04835 17.136 8.04835 16.8396V16.2089H7.54207C7.30337 16.2089 7.10876 15.9655 7.10876 15.6691C7.10876 15.3717 7.30413 15.1293 7.54207 15.1293H8.04835V14.4985C8.04835 14.2021 8.24296 13.9587 8.48166 13.9587Z" fill="white"/>
<path fill-rule="evenodd" clip-rule="evenodd" d="M9.65763 15.689L9.38168 16.0328V15.3452L9.65763 15.689ZM8.4953 14.241L8.77125 14.5847H8.21936L8.4953 14.241ZM7.33374 15.689L7.60969 16.0328V15.3452L7.33374 15.689ZM8.4953 17.136L8.77125 16.7923H8.21936L8.4953 17.136Z" fill="#262626"/>
</svg>
