<svg width="30" height="31" viewBox="0 0 30 31" fill="none" xmlns="http://www.w3.org/2000/svg">
<path d="M0 12.8212C0 19.6753 5.60197 25.2454 12.4816 25.2454C15.6511 25.2454 18.5504 24.0592 20.7555 22.1149L28.7101 30.0329C28.8575 30.1796 29.0479 30.253 29.2445 30.253C29.441 30.253 29.6315 30.1796 29.7789 30.0329C30.0737 29.7394 30.0737 29.2686 29.7789 28.9751L21.8182 21.0571C23.7715 18.8621 24.9631 15.9823 24.9631 12.8212C24.9631 5.96708 19.3612 0.396973 12.4816 0.396973C5.60197 0.396973 0 5.96708 0 12.8212ZM23.4582 12.8212C23.4582 18.8437 18.5319 23.7474 12.4816 23.7474C6.4312 23.7474 1.50491 18.8437 1.50491 12.8212C1.50491 6.79862 6.4312 1.89497 12.4816 1.89497C18.5319 1.89497 23.4582 6.7925 23.4582 12.8212Z" fill="white"/>
</svg>
